<svg id="Capa_1" enable-background="new 0 0 512 512" height="512" viewBox="0 0 512 512" width="512" xmlns="http://www.w3.org/2000/svg"><g><path d="m129.224 370.659-8.633 47.646s-5.336 1.586-11.857 2.421c-7.397.938-16.318.907-20.738-3.513-8.324-8.324 0-29.69 0-29.69l11.775-4.821z" fill="#ffcbbe"/><path d="m108.733 420.726c-7.397.938-16.318.907-20.738-3.513-8.324-8.324 0-29.69 0-29.69l11.775-4.821 7.407 4.821c.001 0-12.588 21.232 1.556 33.203z" fill="#eaac9d"/><path d="m357.913 283.228c-2.73 4.121-5.532 7.84-8.386 11.198-42.371 49.768-97.053 19.986-98.228 19.337h-.01c.381.618 15.288 24.704 18.533 56.897l1.35 16.864s5.12 58.38-11.26 100.371h-51.2s12.836-59.524-12.609-84.969c-25.445 25.445-12.609 84.969-12.609 84.969h-51.2c-16.38-41.99-11.26-100.371-11.26-100.371h-33.038c0-92.366 37.499-122.88 43.999-127.475h128.216c13.547 40.744 72.535 11.095 72.535 11.095z" fill="#da4a54"/><path d="m349.528 294.426c-42.371 49.768-97.053 19.986-98.228 19.337h-.01l-.01-.01-2.147-7.433c-1.352-4.68 3.203-8.903 7.762-7.188 17.358 6.531 52.753 14.783 92.633-4.706z" fill="#c32430"/><path d="m236.711 258.407c.024.359.032.719.032 1.078 0 16.296-18.197 29.508-40.644 29.508s-40.644-13.212-40.644-29.508c0-.359.008-.719.032-1.078" fill="#eaac9d"/><path d="m259.914 487.888-3.687 7.456-47.513-7.456s12.831-59.514-12.615-84.97c-25.446 25.456-12.605 84.97-12.605 84.97h-51.2c-16.382-41.982-11.26-100.367-11.26-100.367 0-5.779.544-11.527 1.345-16.865h147.451l1.345 16.865c-.001 0 5.121 58.385-11.261 100.367z" fill="#756e78"/><path d="m149.516 260.045c-15.264 20.601-43.07 66.597-42.341 127.476h-19.185c0-92.371 37.507-122.877 44.004-127.476z" fill="#c32430"/><path d="m147.443 487.888-9.355 12.056-5.806-12.056c-16.382-41.982-11.26-100.367-11.26-100.367 0-5.779.544-11.527 1.345-16.865h24.296c-5.153 19.277-11.528 59.299.78 117.232z" fill="#544f57"/><path d="m222.066 487.888h-13.365s12.841-59.514-12.605-84.97c25.97 0 39.324 44.713 25.97 84.97z" fill="#544f57"/><path d="m313.263 143.239-157.795.676-78.357.33c-5.973-54.54-23.311-125.368 40.387-137.991 15.293-3.033 29.065-4.833 41.443-5.678 82.911-5.627 103.535 31.811 103.535 31.811s15.006-13.181 31.321-11.837c5.897.482 11.972 2.873 17.566 8.466 29.503 29.504 1.9 114.223 1.9 114.223z" fill="#aa593d"/><path d="m293.796 20.55c-19.382 13.316-32.064 53.161-37.936 75.873-5.745-23.134 1.276-48.599 6.616-64.035-.001-.001 15.005-13.182 31.32-11.838z" fill="#934d36"/><path d="m146.732 85.134 8.736 58.78-78.357.33c-5.973-54.539-23.311-125.367 40.387-137.99 15.293-3.033 29.065-4.833 41.443-5.678 0 .008-.008.008-.008.008-31.896 19.619-22.045 54.565-12.201 84.55z" fill="#934d36"/><path d="m302.821 187.303h.149c12.833 0 23.232-10.407 23.232-23.232 0-12.833-10.399-23.241-23.232-23.241-.167 0-.334 0-.501.009h-212.735c-.167-.009-.334-.009-.501-.009-12.833 0-23.232 10.407-23.232 23.241 0 12.825 10.399 23.232 23.232 23.232h.149" fill="#eaac9d"/><path d="m303.048 169.515c0 12.234-.313 24.477-.938 36.711-1.563 30.586-26.04 54.936-56.642 56.381-21.393 1.014-42.794 1.36-64.188 1.056h-.008c-11.516-.161-23.024-.515-34.54-1.056-30.594-1.445-55.071-25.795-56.643-56.381-1.115-21.799-1.234-43.589-.363-65.387h.008c11.93-4.419 19.027-18.157 23.243-33.433 4.326-15.673 19.34-24.24 33.754-22.272 5.619.769 11.153 3.143 15.918 7.317 9.573 8.381 21.511 12.572 33.45 12.572s23.885-4.191 33.458-12.572c5.931-5.196 13.037-7.596 20.033-7.596 13.054 0 25.719 8.365 29.639 22.551 4.208 15.276 11.305 29.014 23.243 33.433.39 9.564.576 19.12.576 28.676z" fill="#ffcbbe"/><path d="m181.271 263.663c-11.516-.161-23.024-.515-34.54-1.056-30.594-1.445-55.071-25.795-56.643-56.381-1.115-21.799-1.234-43.589-.363-65.387h.008c11.93-4.419 19.027-18.157 23.243-33.433 4.326-15.673 19.34-24.24 33.754-22.272-10.94 97.697.002 177.456 34.541 178.529z" fill="#eaac9d"/><g fill="#544f57"><path d="m146.634 141.477c-5.353 0-9.708 6.475-9.708 14.433s4.355 14.433 9.708 14.433 9.708-6.475 9.708-14.433-4.355-14.433-9.708-14.433z"/><path d="m245.57 141.477c-5.353 0-9.708 6.475-9.708 14.433s4.355 14.433 9.708 14.433 9.708-6.475 9.708-14.433-4.354-14.433-9.708-14.433z"/></g><path d="m116.933 512h66.561v-24.108h-42.454c-13.313 0-24.107 10.794-24.107 24.108z" fill="#aa593d"/><path d="m156.411 487.888c-13.313 0-24.112 10.798-24.112 24.112h-15.366c0-13.313 10.788-24.112 24.101-24.112z" fill="#934d36"/><path d="m275.271 512h-66.561v-24.108h42.453c13.314 0 24.108 10.794 24.108 24.108z" fill="#aa593d"/><path d="m196.1 218.768c-12.21 0-23.482-7.129-28.718-18.161-1.829-3.855-.187-8.463 3.668-10.293 3.856-1.83 8.463-.187 10.293 3.668 2.691 5.67 8.483 9.334 14.757 9.334s12.067-3.664 14.758-9.334c1.829-3.855 6.439-5.498 10.293-3.668 3.855 1.829 5.497 6.438 3.668 10.293-5.237 11.032-16.51 18.161-28.719 18.161z" fill="#da4a54"/><g><path d="m445.999 59.105h-176.17v91.409c0 42.849 27.125 81.001 67.596 95.076l20.489 7.126 20.489-7.126c40.471-14.075 67.596-52.227 67.596-95.076z" fill="#9dc6fb"/><path d="m357.914 252.715-20.49-7.119c-40.465-14.083-67.59-52.23-67.59-95.075v-91.407h42.959v91.408c0 42.845 13.897 80.993 34.624 95.075z" fill="#7398d3"/><g fill="#fff"><g><path d="m344.125 145.685c-4.267 0-7.726-3.459-7.726-7.726 0-8.324-6.772-15.096-15.096-15.096s-15.096 6.772-15.096 15.096c0 4.267-3.459 7.726-7.726 7.726s-7.726-3.459-7.726-7.726c0-16.845 13.704-30.549 30.549-30.549s30.549 13.704 30.549 30.549c-.002 4.267-3.461 7.726-7.728 7.726z"/><path d="m417.348 145.685c-4.267 0-7.726-3.459-7.726-7.726 0-8.324-6.772-15.096-15.096-15.096s-15.096 6.772-15.096 15.096c0 4.267-3.459 7.726-7.726 7.726s-7.726-3.459-7.726-7.726c0-16.845 13.704-30.549 30.549-30.549s30.549 13.704 30.549 30.549c-.002 4.267-3.461 7.726-7.728 7.726z"/></g><path d="m357.913 197.486c-12.206 0-24.412-4.646-33.704-13.939-3.018-3.017-3.018-7.909 0-10.927 3.017-3.018 7.909-3.018 10.927 0 12.561 12.56 32.996 12.559 45.556 0 3.017-3.018 7.909-3.018 10.927 0 3.018 3.017 3.018 7.909 0 10.927-9.293 9.293-21.499 13.939-33.706 13.939z"/></g></g><path d="m357.913 283.228-13.784-6.614-11.384-5.47c-3.163-14.598 11.064-49.614 29.092-36.901v.01c1.03.721 2.081 1.607 3.132 2.658 19.472 19.47-7.056 46.317-7.056 46.317z" fill="#ffcbbe"/><path d="m361.838 234.243v.01s-22.118 20.964-17.709 42.361l-11.384-5.47c-3.162-14.598 11.065-49.614 29.093-36.901z" fill="#eaac9d"/><path d="m122.366 370.657c2.525-23.21 21.32-63.933 21.32-63.933s-11.053 54.923 2.976 63.933" fill="#c32430"/><path d="m208.71 487.888h13.357v24.112h-13.357z" fill="#934d36"/></g></svg>